<?xml version="1.0" encoding="UTF-8" standalone="no"?>
<svg
   xmlns:dc="http://purl.org/dc/elements/1.1/"
   xmlns:cc="http://creativecommons.org/ns#"
   xmlns:rdf="http://www.w3.org/1999/02/22-rdf-syntax-ns#"
   xmlns:svg="http://www.w3.org/2000/svg"
   xmlns="http://www.w3.org/2000/svg"
   xmlns:sodipodi="http://sodipodi.sourceforge.net/DTD/sodipodi-0.dtd"
   xmlns:inkscape="http://www.inkscape.org/namespaces/inkscape"
   version="1.1"
   viewBox="0 0 129 129"
   enable-background="new 0 0 129 129"
   id="svg869"
   sodipodi:docname="close.svg"
   inkscape:version="0.92.2 5c3e80d, 2017-08-06">
  <metadata
     id="metadata875">
    <rdf:RDF>
      <cc:Work
         rdf:about="">
        <dc:format>image/svg+xml</dc:format>
        <dc:type
           rdf:resource="http://purl.org/dc/dcmitype/StillImage" />
      </cc:Work>
    </rdf:RDF>
  </metadata>
  <defs
     id="defs873" />
  <sodipodi:namedview
     pagecolor="#ffffff"
     bordercolor="#666666"
     borderopacity="1"
     objecttolerance="10"
     gridtolerance="10"
     guidetolerance="10"
     inkscape:pageopacity="0"
     inkscape:pageshadow="2"
     inkscape:window-width="1125"
     inkscape:window-height="669"
     id="namedview871"
     showgrid="false"
     inkscape:zoom="3.5681429"
     inkscape:cx="64.5"
     inkscape:cy="64.5"
     inkscape:window-x="0"
     inkscape:window-y="0"
     inkscape:window-maximized="0"
     inkscape:current-layer="svg869" />
  <g
     id="g867"
     style="fill:#ffffff;fill-opacity:1">
    <path
       d="M7.6,121.4c0.8,0.8,1.8,1.2,2.9,1.2s2.1-0.4,2.9-1.2l51.1-51.1l51.1,51.1c0.8,0.8,1.8,1.2,2.9,1.2c1,0,2.1-0.4,2.9-1.2   c1.6-1.6,1.6-4.2,0-5.8L70.3,64.5l51.1-51.1c1.6-1.6,1.6-4.2,0-5.8s-4.2-1.6-5.8,0L64.5,58.7L13.4,7.6C11.8,6,9.2,6,7.6,7.6   s-1.6,4.2,0,5.8l51.1,51.1L7.6,115.6C6,117.2,6,119.8,7.6,121.4z"
       id="path865"
       style="fill:#ffffff;fill-opacity:1" />
  </g>
</svg>
