<?xml version="1.0" encoding="UTF-8" standalone="no"?>
<svg
   xmlns:dc="http://purl.org/dc/elements/1.1/"
   xmlns:cc="http://creativecommons.org/ns#"
   xmlns:rdf="http://www.w3.org/1999/02/22-rdf-syntax-ns#"
   xmlns:svg="http://www.w3.org/2000/svg"
   xmlns="http://www.w3.org/2000/svg"
   xmlns:sodipodi="http://sodipodi.sourceforge.net/DTD/sodipodi-0.dtd"
   xmlns:inkscape="http://www.inkscape.org/namespaces/inkscape"
   width="32"
   height="32"
   version="1.1"
   id="svg874"
   sodipodi:docname="navbarImage.svg"
   inkscape:version="0.92.2 5c3e80d, 2017-08-06">
  <metadata
     id="metadata880">
    <rdf:RDF>
      <cc:Work
         rdf:about="">
        <dc:format>image/svg+xml</dc:format>
        <dc:type
           rdf:resource="http://purl.org/dc/dcmitype/StillImage" />
      </cc:Work>
    </rdf:RDF>
  </metadata>
  <defs
     id="defs878" />
  <sodipodi:namedview
     pagecolor="#ffffff"
     bordercolor="#666666"
     borderopacity="1"
     objecttolerance="10"
     gridtolerance="10"
     guidetolerance="10"
     inkscape:pageopacity="0"
     inkscape:pageshadow="2"
     inkscape:window-width="931"
     inkscape:window-height="731"
     id="namedview876"
     showgrid="false"
     inkscape:zoom="9.5492451"
     inkscape:cx="16"
     inkscape:cy="16"
     inkscape:window-x="0"
     inkscape:window-y="0"
     inkscape:window-maximized="0"
     inkscape:current-layer="svg874" />
  <g
     id="g867">
    <title
       id="title864">background</title>
    <rect
       fill="none"
       id="canvas_background"
       height="402"
       width="582"
       y="-1"
       x="-1" />
  </g>
  <g
     id="g872"
     style="stroke:#d9b310;stroke-opacity:1;stroke-width:1.5;stroke-miterlimit:4;stroke-dasharray:none;fill:#000000;fill-opacity:0">
    <title
       id="title869">Layer 1</title>
    <path
       fill="#ffffff"
       id="svg_1"
       d="m4.059171,10l24.000001,0c1.104,0 2,-0.896 2,-2s-0.896,-2 -2,-2l-24.000001,0c-1.104,0 -2,0.896 -2,2s0.896,2 2,2zm24.000001,4l-24.000001,0c-1.104,0 -2,0.896 -2,2s0.896,2 2,2l24.000001,0c1.104,0 2,-0.896 2,-2s-0.896,-2 -2,-2zm0,8l-24.000001,0c-1.104,0 -2,0.896 -2,2s0.896,2 2,2l24.000001,0c1.104,0 2,-0.896 2,-2s-0.896,-2 -2,-2z"
       style="stroke:#d9b310;stroke-opacity:1;stroke-width:1.5;stroke-miterlimit:4;stroke-dasharray:none;fill:#000000;fill-opacity:0" />
  </g>
</svg>
